<?xml version="1.0" encoding="UTF-8" standalone="no"?>
<!-- Created with Inkscape (http://www.inkscape.org/) -->

<svg
   xmlns:dc="http://purl.org/dc/elements/1.1/"
   xmlns:cc="http://creativecommons.org/ns#"
   xmlns:rdf="http://www.w3.org/1999/02/22-rdf-syntax-ns#"
   xmlns:svg="http://www.w3.org/2000/svg"
   xmlns="http://www.w3.org/2000/svg"
   xmlns:sodipodi="http://sodipodi.sourceforge.net/DTD/sodipodi-0.dtd"
   xmlns:inkscape="http://www.inkscape.org/namespaces/inkscape"
   width="210mm"
   height="297mm"
   viewBox="0 0 210 297"
   version="1.1"
   id="svg8"
   inkscape:version="0.92.5 (2060ec1f9f, 2020-04-08)"
   sodipodi:docname="logo.svg">
  <defs
     id="defs2">
    <linearGradient
       x1="341.56"
       y1="527.59003"
       gradientTransform="translate(-0.0806,-2.6517)"
       x2="400.01999"
       gradientUnits="userSpaceOnUse"
       y2="477.59"
       id="linearGradient2457">
      <stop
         offset="0"
         style="stop-color:#004455;stop-opacity:.5"
         id="stop2453" />
      <stop
         offset="1"
         style="stop-color:#162d50"
         id="stop2455" />
    </linearGradient>
    <linearGradient
       id="linearGradient1530">
      <stop
         offset="0"
         style="stop-color:#7fff00"
         id="stop1531" />
      <stop
         offset="1"
         style="stop-color:#000000"
         id="stop1532" />
    </linearGradient>
    <linearGradient
       id="linearGradient1546">
      <stop
         offset="0"
         style="stop-color:#ffffff"
         id="stop1547" />
      <stop
         offset="1"
         style="stop-color:#ffffff;stop-opacity:0"
         id="stop1548" />
    </linearGradient>
  </defs>
  <sodipodi:namedview
     id="base"
     pagecolor="#ffffff"
     bordercolor="#666666"
     borderopacity="1.0"
     inkscape:pageopacity="0.0"
     inkscape:pageshadow="2"
     inkscape:zoom="0.35"
     inkscape:cx="405.71429"
     inkscape:cy="560"
     inkscape:document-units="mm"
     inkscape:current-layer="layer1"
     showgrid="false"
     inkscape:window-width="2560"
     inkscape:window-height="1369"
     inkscape:window-x="2560"
     inkscape:window-y="40"
     inkscape:window-maximized="1" />
  <metadata
     id="metadata5">
    <rdf:RDF>
      <cc:Work
         rdf:about="">
        <dc:format>image/svg+xml</dc:format>
        <dc:type
           rdf:resource="http://purl.org/dc/dcmitype/StillImage" />
        <dc:title></dc:title>
      </cc:Work>
    </rdf:RDF>
  </metadata>
  <g
     inkscape:label="Layer 1"
     inkscape:groupmode="layer"
     id="layer1">
    <g
       transform="matrix(0.79681999,0,0,0.80510073,-5.7609103,-116.35183)"
       id="layer1-6"
       inkscape:label="Layer 1">
      <g
         transform="translate(0,0.52916663)"
         id="g97">
        <g
           id="g70"
           transform="translate(15.345833,58.7375)">
          <path
             inkscape:connector-curvature="0"
             id="path21"
             style="font-style:normal;font-variant:normal;font-weight:normal;font-stretch:normal;font-size:8.08754444px;line-height:1.25;font-family:'Battlefield Bold';-inkscape-font-specification:'Battlefield Bold, ';letter-spacing:0px;word-spacing:0px;fill:#e3dbdb;fill-opacity:1;stroke:none;stroke-width:1.05057895"
             d="M 16.933069,132.457 H 8.1063172 v -20.62615 h 8.8267518 z" />
          <path
             inkscape:connector-curvature="0"
             id="path23"
             style="font-style:normal;font-variant:normal;font-weight:normal;font-stretch:normal;font-size:8.08754444px;line-height:1.25;font-family:'Battlefield Bold';-inkscape-font-specification:'Battlefield Bold, ';letter-spacing:0px;word-spacing:0px;fill:#e3dbdb;fill-opacity:1;stroke:none;stroke-width:1.05057895"
             d="m 27.83136,111.83085 q 0.450314,0 1.666273,0.43133 1.260963,0.39211 2.972274,1.09797 1.756342,0.70584 3.782894,1.68617 2.071584,0.94112 4.0531,2.0783 2.026547,1.13718 3.872962,2.39201 1.846411,1.25482 3.15241,2.50964 v -10.19544 h 8.691647 v 20.62616 h -7.385647 q -1.71131,-1.72537 -4.233241,-3.72524 -2.521926,-2.03909 -5.269026,-3.8429 -2.702068,-1.80381 -5.314068,-3.13705 -2.566963,-1.33326 -4.413373,-1.68618 V 132.457 h -8.691646 v -20.62615 z" />
          <path
             inkscape:connector-curvature="0"
             id="path25"
             style="font-style:normal;font-variant:normal;font-weight:normal;font-stretch:normal;font-size:8.08754444px;line-height:1.25;font-family:'Battlefield Bold';-inkscape-font-specification:'Battlefield Bold, ';letter-spacing:0px;word-spacing:0px;fill:#e3dbdb;fill-opacity:1;stroke:none;stroke-width:1.05057895"
             d="m 67.011279,111.83085 q 0.45037,0 1.666274,0.43133 1.260963,0.39211 2.972273,1.09797 1.756342,0.70584 3.782889,1.68617 2.071589,0.94112 4.053099,2.0783 2.026553,1.13718 3.872963,2.39201 1.846416,1.25482 3.15241,2.50964 v -10.19544 h 8.691652 v 20.62616 h -7.385652 q -1.711305,-1.72538 -4.233236,-3.72526 -2.521926,-2.03908 -5.269031,-3.84289 -2.702063,-1.80381 -5.314063,-3.13706 -2.566963,-1.33325 -4.413373,-1.68617 v 12.39138 h -8.691646 v -20.62616 z" />
          <path
             inkscape:connector-curvature="0"
             id="path27"
             style="font-style:normal;font-variant:normal;font-weight:normal;font-stretch:normal;font-size:8.08754444px;line-height:1.25;font-family:'Battlefield Bold';-inkscape-font-specification:'Battlefield Bold, ';letter-spacing:0px;word-spacing:0px;fill:#e3dbdb;fill-opacity:1;stroke:none;stroke-width:1.05057895"
             d="m 120.24194,125.08492 v -5.96041 H 99.03072 v 5.96041 z" />
          <path
             inkscape:connector-curvature="0"
             id="path29"
             style="font-style:normal;font-variant:normal;font-weight:normal;font-stretch:normal;font-size:8.08754444px;line-height:1.25;font-family:'Battlefield Bold';-inkscape-font-specification:'Battlefield Bold, ';letter-spacing:0px;word-spacing:0px;fill:#e3dbdb;fill-opacity:1;stroke:none;stroke-width:1.05057895"
             d="m 140.46239,132.457 q -0.99076,0 -2.07159,-0.54898 -1.08082,-0.54898 -2.02655,-1.37246 -0.90069,-0.86269 -1.48614,-1.84302 -0.58544,-0.98034 -0.58544,-1.88224 v -8.9014 h -10.17779 v -6.07805 h 35.30701 v 6.07805 h -16.43758 v 6.97995 q 0,0.66663 0.63049,1.13719 0.63048,0.43133 1.26096,0.43133 h 5.13393 v 5.99962 z" />
          <path
             inkscape:connector-curvature="0"
             id="path31"
             style="font-style:normal;font-variant:normal;font-weight:normal;font-stretch:normal;font-size:8.08754444px;line-height:1.25;font-family:'Battlefield Bold';-inkscape-font-specification:'Battlefield Bold, ';letter-spacing:0px;word-spacing:0px;fill:#e3dbdb;fill-opacity:1;stroke:none;stroke-width:1.05057895"
             d="m 197.97132,126.37896 h -22.74239 q -1.08083,0 -1.53117,-0.0784 -0.40532,-0.11762 -0.40532,-0.39215 v -0.3137 q 0,-0.19608 0.18014,-0.27448 0.18013,-0.11763 0.67551,-0.19608 h 13.55537 v -5.99962 h -13.55537 q -0.54041,-0.0785 -0.72055,-0.15685 -0.13509,-0.0784 -0.13509,-0.27448 v -0.27448 q 0,-0.31371 0.40532,-0.39211 0.45032,-0.11763 1.53117,-0.11763 h 22.74239 v -6.07804 h -23.10266 q -2.612,0 -4.77366,0.3137 -2.11662,0.27448 -3.64778,1.01954 -1.48614,0.74506 -2.34179,2.03909 -0.81062,1.25483 -0.81062,3.17628 0,1.01954 0.18013,1.99987 0.22519,0.94112 1.35103,1.60774 -0.81062,0.78427 -1.17089,1.80381 -0.36027,0.98033 -0.36027,2.11751 0,1.96067 1.17089,3.21549 1.17089,1.25482 2.92724,1.99987 1.75634,0.74505 3.73785,1.05876 2.02656,0.27448 3.73787,0.27448 h 23.10266 z" />
          <path
             inkscape:connector-curvature="0"
             id="path33"
             style="font-style:normal;font-variant:normal;font-weight:normal;font-stretch:normal;font-size:8.08754444px;line-height:1.25;font-family:'Battlefield Bold';-inkscape-font-specification:'Battlefield Bold, ';letter-spacing:0px;word-spacing:0px;fill:#e3dbdb;fill-opacity:1;stroke:none;stroke-width:1.05057895"
             d="m 210.53589,132.457 h -8.69165 v -20.62615 h 8.69165 v 7.52894 h 10.94336 l 5.58427,-7.52894 h 9.2771 l -5.58427,7.52894 q 1.21593,0.11762 2.34179,0.54898 1.17089,0.43133 2.07158,1.13719 0.94573,0.70584 1.48614,1.64695 0.54041,0.90191 0.54041,1.99987 v 7.76422 h -8.64662 v -4.58794 q 0,-1.01955 -1.03579,-1.7646 -0.99076,-0.78426 -2.56696,-0.78426 h -14.41102 z" />
        </g>
        <g
           id="g79"
           transform="translate(18.993422,-86.575695)">
          <path
             inkscape:connector-curvature="0"
             id="path36"
             style="font-style:normal;font-variant:normal;font-weight:normal;font-stretch:normal;font-size:8.08754444px;line-height:1.25;font-family:'Battlefield Bold';-inkscape-font-specification:'Battlefield Bold, ';letter-spacing:0px;word-spacing:0px;fill:#ff0000;fill-opacity:1;stroke:none;stroke-width:1.05057895"
             d="M 11.697972,275.12436 H 2.8712206 v -20.62615 h 8.8267514 z" />
          <path
             inkscape:connector-curvature="0"
             id="path38"
             style="font-style:normal;font-variant:normal;font-weight:normal;font-stretch:normal;font-size:8.08754444px;line-height:1.25;font-family:'Battlefield Bold';-inkscape-font-specification:'Battlefield Bold, ';letter-spacing:0px;word-spacing:0px;fill:#ff0000;fill-opacity:1;stroke:none;stroke-width:1.05057895"
             d="m 22.596263,254.49821 q 0.45037,0 1.666279,0.43133 1.260963,0.3921 2.972274,1.09797 1.756341,0.70584 3.782888,1.68617 2.071584,0.94112 4.0531,2.0783 2.026553,1.13718 3.872963,2.39201 1.84641,1.25482 3.15241,2.50964 v -10.19544 h 8.691646 v 20.62616 h -7.385646 q -1.711311,-1.72538 -4.233237,-3.72525 -2.521931,-2.0391 -5.269031,-3.8429 -2.702068,-1.80381 -5.314062,-3.13706 -2.566963,-1.33325 -4.413379,-1.68617 v 12.39138 h -8.691646 v -20.62616 z" />
          <path
             inkscape:connector-curvature="0"
             id="path40"
             style="font-style:normal;font-variant:normal;font-weight:normal;font-stretch:normal;font-size:8.08754444px;line-height:1.25;font-family:'Battlefield Bold';-inkscape-font-specification:'Battlefield Bold, ';letter-spacing:0px;word-spacing:0px;fill:#ff0000;fill-opacity:1;stroke:none;stroke-width:1.05057895"
             d="m 61.776183,254.49821 q 0.450369,0 1.666273,0.43133 1.260969,0.3921 2.972273,1.09797 1.756342,0.70584 3.782895,1.68617 2.071584,0.94112 4.053099,2.0783 2.026547,1.13718 3.872963,2.39201 1.84641,1.25482 3.15241,2.50964 v -10.19544 h 8.691646 v 20.62616 h -7.385646 q -1.71131,-1.72538 -4.233242,-3.72525 -2.521926,-2.0391 -5.269025,-3.8429 -2.702068,-1.80381 -5.314063,-3.13706 -2.566963,-1.33325 -4.413378,-1.68617 v 12.39138 h -8.691647 v -20.62616 z" />
          <path
             inkscape:connector-curvature="0"
             id="path42"
             style="font-style:normal;font-variant:normal;font-weight:normal;font-stretch:normal;font-size:8.08754444px;line-height:1.25;font-family:'Battlefield Bold';-inkscape-font-specification:'Battlefield Bold, ';letter-spacing:0px;word-spacing:0px;fill:#ff0000;fill-opacity:1;stroke:none;stroke-width:1.05057895"
             d="m 115.00685,267.75228 v -5.96041 H 93.795624 v 5.96041 z" />
          <path
             inkscape:connector-curvature="0"
             id="path44"
             style="font-style:normal;font-variant:normal;font-weight:normal;font-stretch:normal;font-size:8.08754444px;line-height:1.25;font-family:'Battlefield Bold';-inkscape-font-specification:'Battlefield Bold, ';letter-spacing:0px;word-spacing:0px;fill:#ff0000;fill-opacity:1;stroke:none;stroke-width:1.05057895"
             d="m 135.22729,275.12436 q -0.99076,0 -2.07158,-0.54898 -1.08083,-0.54899 -2.02655,-1.37246 -0.90069,-0.86269 -1.48614,-1.84303 -0.58544,-0.98032 -0.58544,-1.88223 v -8.9014 h -10.17779 v -6.07805 h 35.307 v 6.07805 h -16.43757 v 6.97995 q 0,0.66663 0.63048,1.13718 0.63049,0.43134 1.26096,0.43134 h 5.13394 v 5.99962 z" />
          <path
             inkscape:connector-curvature="0"
             id="path46"
             style="font-style:normal;font-variant:normal;font-weight:normal;font-stretch:normal;font-size:8.08754444px;line-height:1.25;font-family:'Battlefield Bold';-inkscape-font-specification:'Battlefield Bold, ';letter-spacing:0px;word-spacing:0px;fill:#ff0000;fill-opacity:1;stroke:none;stroke-width:1.05057895"
             d="m 192.73622,269.04631 h -22.74239 q -1.08082,0 -1.53117,-0.0785 -0.40532,-0.11762 -0.40532,-0.39215 v -0.3137 q 0,-0.19608 0.18014,-0.27448 0.18014,-0.11763 0.67551,-0.19608 h 13.55537 v -5.99963 h -13.55537 q -0.54041,-0.0784 -0.72054,-0.15685 -0.13509,-0.0785 -0.13509,-0.27448 v -0.27448 q 0,-0.3137 0.40532,-0.3921 0.45031,-0.11763 1.53117,-0.11763 h 22.74239 v -6.07805 h -23.10266 q -2.612,0 -4.77366,0.3137 -2.11661,0.27448 -3.64779,1.01955 -1.48613,0.74505 -2.34178,2.03909 -0.81063,1.25482 -0.81063,3.17627 0,1.01954 0.18014,1.99988 0.22519,0.94111 1.35104,1.60774 -0.81062,0.78426 -1.1709,1.80381 -0.36027,0.98033 -0.36027,2.11751 0,1.96066 1.17089,3.21548 1.1709,1.25483 2.92725,1.99988 1.75634,0.74505 3.73785,1.05876 2.02655,0.27448 3.73786,0.27448 h 23.10267 z" />
          <path
             inkscape:connector-curvature="0"
             id="path48"
             style="font-style:normal;font-variant:normal;font-weight:normal;font-stretch:normal;font-size:8.08754444px;line-height:1.25;font-family:'Battlefield Bold';-inkscape-font-specification:'Battlefield Bold, ';letter-spacing:0px;word-spacing:0px;fill:#ff0000;fill-opacity:1;stroke:none;stroke-width:1.05057895"
             d="m 205.30079,275.12436 h -8.69165 v -20.62615 h 8.69165 v 7.52894 h 10.94337 l 5.58427,-7.52894 h 9.27709 l -5.58427,7.52894 q 1.21593,0.11763 2.34179,0.54898 1.1709,0.43133 2.07159,1.13719 0.94572,0.70583 1.48613,1.64695 0.54041,0.9019 0.54041,1.99988 v 7.76421 h -8.6466 v -4.58794 q 0,-1.01954 -1.0358,-1.7646 -0.99076,-0.78426 -2.56696,-0.78426 h -14.41102 z" />
        </g>
      </g>
    </g>
  </g>
</svg>
